<?xml version="1.0" encoding="UTF-8" standalone="no"?>
<!-- Created with Inkscape (http://www.inkscape.org/) -->

<svg
   version="1.1"
   id="svg1"
   width="453.53333"
   height="281.12"
   viewBox="0 0 453.53333 281.12"
   sodipodi:docname="knx-partner.svg"
   inkscape:version="1.4.2 (ebf0e940, 2025-05-08)"
   xmlns:inkscape="http://www.inkscape.org/namespaces/inkscape"
   xmlns:sodipodi="http://sodipodi.sourceforge.net/DTD/sodipodi-0.dtd"
   xmlns="http://www.w3.org/2000/svg"
   xmlns:svg="http://www.w3.org/2000/svg">
  <defs
     id="defs1" />
  <sodipodi:namedview
     id="namedview1"
     pagecolor="#505050"
     bordercolor="#eeeeee"
     borderopacity="1"
     inkscape:showpageshadow="0"
     inkscape:pageopacity="0"
     inkscape:pagecheckerboard="0"
     inkscape:deskcolor="#505050"
     inkscape:zoom="1.0463732"
     inkscape:cx="264.24607"
     inkscape:cy="107.99206"
     inkscape:window-width="1456"
     inkscape:window-height="837"
     inkscape:window-x="0"
     inkscape:window-y="38"
     inkscape:window-maximized="0"
     inkscape:current-layer="g1">
    <inkscape:page
       x="0"
       y="0"
       inkscape:label="1"
       id="page1"
       width="453.53333"
       height="281.12"
       margin="0"
       bleed="0" />
  </sodipodi:namedview>
  <g
     id="g1"
     inkscape:groupmode="layer"
     inkscape:label="1">
    <g
       id="group-R5">
      <path
         id="path2"
         d="m 3401.54,508.961 -308.32,-0.422 -274.94,327.102 -318.19,-326.68 h -259.14 l 458.63,468.148 -364.8,434.751 302.58,-0.25 228.26,-265.97 264.63,265.97 h 259.12 l -405.02,-407.47 417.19,-495.179 v 0"
         style="fill:#c0a496;fill-opacity:1;fill-rule:evenodd;stroke:none"
         transform="matrix(0.13333333,0,0,-0.13333333,0,281.12)" />
      <path
         id="path3"
         d="m 1436.23,1412.84 400.78,-565.692 -2.11,563.892 259.78,0.82 V 508.641 h -298.2 l -415.18,561.499 0.12,-561.499 h -260.66 v 903.999 l 315.47,0.2 v 0"
         style="fill:#c0a496;fill-opacity:1;fill-rule:evenodd;stroke:none"
         transform="matrix(0.13333333,0,0,-0.13333333,0,281.12)" />
      <path
         id="path4"
         d="m 565.078,993.609 -36.762,46.261 367.149,372.66 H 633.145 L 259.184,1032.24 v 0.65 378.66 L 0.636719,1411.61 0,509.031 259.184,508.961 V 766.77 L 361.57,870.57 665.703,508.988 H 975.152 L 565.078,993.609 v 0"
         style="fill:#c0a496;fill-opacity:1;fill-rule:evenodd;stroke:none"
         transform="matrix(0.13333333,0,0,-0.13333333,0,281.12)" />
      <path
         id="path5"
         d="m 3389.27,1464.46 c -449.72,401.13 -1036.87,643.95 -1688.18,643.95 -0.35,0 -0.68,0 -1.04,0 v -163.77 c 539.09,-0.29 1031.78,-178.16 1430.16,-479.97 l 259.06,-0.21 v 0"
         style="fill:#c0a496;fill-opacity:1;fill-rule:evenodd;stroke:none"
         transform="matrix(0.13333333,0,0,-0.13333333,0,281.12)" />
      <path
         id="path6"
         d="M 0.144531,1463.94 H 259.609 c 398.684,302.08 899.741,480.7 1439.121,480.7 0.43,0 0.85,0 1.32,0 v 163.77 C 1049.39,2108.14 449.609,1864.86 0.144531,1463.94 v 0"
         style="fill:#c0a496;fill-opacity:1;fill-rule:evenodd;stroke:none"
         transform="matrix(0.13333333,0,0,-0.13333333,0,281.12)" />
      <path
         id="path7"
         d="m 2.7066094,6.29375e-4 h 4.96875 V -6.7728081 h 3.7851566 c 5.0625,0 9.128906,-2.71875 9.128906,-7.9453129 v -0.05859 c 0,-4.617188 -3.257813,-7.816407 -8.648438,-7.816407 H 2.7066094 Z M 7.6753594,-11.202496 v -6.902343 h 3.8437496 c 2.484375,0 4.03125,1.195312 4.03125,3.421875 v 0.05859 c 0,1.945313 -1.453125,3.421875 -3.9375,3.421875 z M 36.925359,6.29375e-4 h 5.0625 L 44.062078,-5.0618706 h 9.550781 l 2.0625,5.062499975 h 5.203125 L 51.187078,-22.757183 h -4.582031 z m 8.90625,-9.457031275 3,-7.3242191 3,7.3242191 z M 81.210516,6.29375e-4 h 4.96875 V -7.2298394 h 3.914062 l 4.839844,7.230468775 h 5.812498 L 95.226141,-8.0618706 c 2.871093,-1.0664063 4.839839,-3.3632814 4.839839,-7.0078124 v -0.07031 c 0,-2.121093 -0.679683,-3.902343 -1.945308,-5.15625 -1.476563,-1.488281 -3.703125,-2.296875 -6.574219,-2.296875 H 81.210516 Z M 86.179266,-11.612652 v -6.492187 h 4.945312 c 2.414063,0 3.902344,1.101562 3.902344,3.222656 v 0.07031 c 0,1.898438 -1.382813,3.199219 -3.808594,3.199219 z M 126.65876,6.29375e-4 h 4.96875 V -18.011089 h 6.8789 v -4.582032 h -18.71484 v 4.582032 h 6.86719 z m 32.50195,0 h 4.91016 V -14.366558 L 175.01618,6.29375e-4 h 4.21875 V -22.593121 h -4.89844 V -8.6829644 L 163.74274,-22.593121 h -4.58203 z m 42.35156,0 H 218.7154 V -4.4173394 h -12.25781 v -4.7460937 h 10.65234 v -4.4179689 h -10.65234 v -4.59375 h 12.09375 v -4.417969 h -17.03907 z m 38.47559,0 h 4.96875 V -7.2298394 h 3.91406 l 4.83985,7.230468775 h 5.8125 L 254.00348,-8.0618706 c 2.8711,-1.0664063 4.83985,-3.3632814 4.83985,-7.0078124 v -0.07031 c 0,-2.121093 -0.67969,-3.902343 -1.94531,-5.15625 -1.47657,-1.488281 -3.70313,-2.296875 -6.57422,-2.296875 H 239.98786 Z M 244.95661,-11.612652 v -6.492187 h 4.94531 c 2.41406,0 3.90235,1.101562 3.90235,3.222656 v 0.07031 c 0,1.898438 -1.38282,3.199219 -3.8086,3.199219 z m 0,0"
         style="fill:#c0a496;fill-opacity:1;fill-rule:nonzero;stroke:none"
         aria-label="PARTNER"
         transform="matrix(1.3333333,0,0,1.3333333,53.024,273.63197)" />
    </g>
  </g>
</svg>
